<?xml version="1.0" standalone="no"?>
<!DOCTYPE svg PUBLIC "-//W3C//DTD SVG 20010904//EN"
 "http://www.w3.org/TR/2001/REC-SVG-20010904/DTD/svg10.dtd">
<svg version="1.0" xmlns="http://www.w3.org/2000/svg"
 width="256.000000pt" height="256.000000pt" viewBox="0 0 256.000000 256.000000"
 preserveAspectRatio="xMidYMid meet">
<metadata>
Created by potrace 1.11, written by Peter Selinger 2001-2013
</metadata>
<g transform="translate(0.000000,256.000000) scale(0.100000,-0.100000)"
fill="#000000" stroke="none">
<path d="M719 2068 c-2 -7 -7 -72 -13 -158 -3 -52 -9 -135 -12 -185 -12 -156
-11 -160 11 -160 11 0 25 12 35 30 45 89 128 226 164 271 84 104 174 143 355
151 109 6 113 5 103 -13 -5 -11 -86 -188 -180 -394 -94 -206 -184 -404 -200
-440 -161 -351 -302 -672 -302 -689 l0 -21 590 0 590 0 1 53 c1 28 3 68 4 87
2 19 6 107 10 195 3 88 8 175 9 193 3 27 0 32 -19 32 -17 0 -25 -9 -35 -42
-28 -97 -94 -211 -163 -286 -65 -69 -186 -144 -255 -157 -12 -2 -26 -6 -31 -9
-14 -9 -201 -17 -201 -9 0 4 27 66 59 138 32 71 136 301 231 510 94 209 180
398 190 420 139 305 199 444 197 464 l-1 21 -568 0 c-312 0 -568 -1 -569 -2z"/>
</g>
</svg>
